<?xml version="1.0" encoding="UTF-8"?><svg id="i" xmlns="http://www.w3.org/2000/svg" viewBox="0 0 248 254"><path d="M126.5,5.86C59.83,5.86,5.59,60.11,5.59,126.78c0,.86,.01,1.75,.03,2.72-.02,.97-.03,1.87-.03,2.72,0,66.67,54.24,120.91,120.91,120.91s120.91-54.24,120.91-120.91c0-.86-.01-1.75-.03-2.72,.02-.97,.03-1.87,.03-2.72,0-66.67-54.24-120.91-120.91-120.91h0Z" fill="#231f20" stroke="#231f20" stroke-miterlimit="10"/><path d="M121.5,.86C54.83,.86,.59,55.11,.59,121.78c0,.86,.01,1.75,.03,2.72-.02,.97-.03,1.87-.03,2.72,0,66.67,54.24,120.91,120.91,120.91s120.91-54.24,120.91-120.91c0-.86-.01-1.75-.03-2.72,.02-.97,.03-1.87,.03-2.72C242.41,55.11,188.17,.86,121.5,.86h0Z" fill="#f9f4da" stroke="#231f20" stroke-linejoin="round"/><g><path d="M121.5,14.31C59.14,14.31,8.59,64.86,8.59,127.22s50.55,112.91,112.91,112.91,112.91-50.55,112.91-112.91S183.86,14.31,121.5,14.31Zm0,133.92c-11.6,0-21.01-9.41-21.01-21.01s9.41-21.01,21.01-21.01,21.01,9.41,21.01,21.01-9.41,21.01-21.01,21.01Z" fill="#f9b728" stroke="#231f20" stroke-linecap="round" stroke-linejoin="round"/><path d="M121.5,8.86C59.14,8.86,8.59,59.42,8.59,121.78s50.55,112.91,112.91,112.91,112.91-50.55,112.91-112.91S183.86,8.86,121.5,8.86Zm0,133.92c-11.6,0-21.01-9.41-21.01-21.01s9.41-21.01,21.01-21.01,21.01,9.41,21.01,21.01-9.41,21.01-21.01,21.01Z" fill="#f9f4da"/><g><path d="M233.43,107.03l-72.96,12.07c0,1.35-.02,2.69-.07,4.03l74.06-5.01c-.17-3.7-.65-7.36-1.03-11.09Z" fill="#12b2e2"/><path d="M234.46,118.11l-74.06,5.01c-.05,1.19-.13,2.37-.27,3.55l73.94,1.38c.15-1.59,.47-8.23,.39-9.94Z" fill="#f088a0"/><path d="M234.07,128.05l-73.94-1.38c-.16,1.34-.39,2.68-.72,4.02l73.63,8.77c.24-3.8,.68-7.6,1.04-11.4Z" fill="#f9b728"/><path d="M8.51,118.5l74.21,4.93c-.12-1.23-.2-2.47-.22-3.71L9.45,107.74c-.17,3.6-.66,7.18-.94,10.76Z" fill="#12b2e2"/><path d="M8.45,125.86c.06,.77,.16,1.53,.27,2.3l74.39-1.48c-.15-1.08-.28-2.16-.39-3.24l-74.21-4.93c-.19,2.44-.27,4.89-.06,7.35Z" fill="#f088a0"/><path d="M10,139.14l73.66-8.79c-.19-1.22-.38-2.45-.55-3.67l-74.39,1.48c.52,3.67,.84,7.32,1.28,10.99Z" fill="#f9b728"/></g><path d="M121.5,8.86C59.14,8.86,8.59,59.42,8.59,121.78s50.55,112.91,112.91,112.91,112.91-50.55,112.91-112.91S183.86,8.86,121.5,8.86Zm0,151.92c-21.54,0-39-17.46-39-39s17.46-39,39-39,39,17.46,39,39-17.46,39-39,39Z" fill="none"/><circle cx="121.5" cy="121.78" r="39" fill="none" stroke="#231f20" stroke-linejoin="round"/><path d="M121.5,8.86C59.14,8.86,8.59,59.42,8.59,121.78s50.55,112.91,112.91,112.91,112.91-50.55,112.91-112.91S183.86,8.86,121.5,8.86Zm0,133.92c-11.6,0-21.01-9.41-21.01-21.01s9.41-21.01,21.01-21.01,21.01,9.41,21.01,21.01-9.41,21.01-21.01,21.01Z" fill="none" stroke="#231f20" stroke-linejoin="round"/><g><g><path d="M152.64,77.54c-1.19,0-2.12-.54-2.67-1.57-.83-1.54-.96-3.3-.38-5.23,.15-.5,.89-.92,1.39-.92h.06l.14,.02c.56,.13,.96,.9,1.01,1.4,.04,.45,.02,.91,0,1.34-.02,.45-.03,.88,.01,1.3,.03,.27,.25,.63,.36,.69,0,0,.07,.02,.18,.02,.3,0,.57-.1,.62-.16l.27-.4c.7-1.05,1.43-2.13,1.76-3.27,.99-3.37,1.19-7.12,.65-11.8-.27-2.3-.67-4.64-1.05-6.89-.13-.79-.27-1.57-.4-2.36-.12,.33-.25,.66-.37,.99-.59,1.56-1.2,3.18-1.95,4.71-1.51,3.1-3.03,5.84-4.63,8.39-.86,1.37-2.33,2.32-3.13,2.76-.5,.28-1.01,.42-1.5,.42-1.25,0-2.25-.91-2.62-2.37-.54-2.12-.03-4.16,.61-6.05,1.38-4.12,3.18-6.75,5.83-8.54,1.1-.74,2.3-1.42,3.71-1.42,.4,0,.8,.06,1.2,.17,.09-.05,.25-.18,.3-.27,.14-.24,.25-.49,.35-.75,.17-.4,.34-.81,.62-1.17,.41-.52,1.13-1.14,1.83-1.16h0c.71,0,1.52,.74,1.74,1.36,.57,1.63,.96,3.09,1.19,4.46l.1,.62c.74,4.39,1.5,8.93,1.21,13.51-.19,2.94-.56,6.06-2.02,8.9-.77,1.49-1.84,3.05-3.96,3.27-.15,.02-.3,.02-.45,.02Zm-9.92-14.4c.06,.11,.12,.23,.18,.35,.11,.22,.27,.55,.38,.6,.18,0,.58-.19,.83-.4,.43-.35,1.04-.88,1.36-1.48,1.86-3.47,3.62-6.92,5.24-10.12,.08-.17,.11-.4,.14-.66-.27-.02-.53-.03-.79-.03h-.23c-.12,0-.3,.08-.41,.17-.33,.29-.69,.57-1.04,.85-.87,.7-1.7,1.35-2.32,2.16-2.14,2.77-3.23,5.56-3.34,8.55Z" fill="#231f20"/><path d="M154.85,45.89c.43,0,1.09,.57,1.25,1.02,.5,1.42,.92,2.89,1.17,4.38,.77,4.64,1.61,9.28,1.3,14.02-.19,3-.57,5.98-1.97,8.7-.76,1.48-1.71,2.81-3.57,3-.14,.01-.27,.02-.4,.02-.96,0-1.74-.4-2.23-1.3-.84-1.55-.83-3.21-.34-4.85,.08-.26,.6-.57,.91-.57,.03,0,.05,0,.08,0,.28,.06,.59,.6,.62,.96,.08,.88-.07,1.78,.03,2.65,.04,.41,.37,1,.69,1.11,.1,.03,.22,.04,.34,.04,.4,0,.88-.14,1.03-.37,.8-1.21,1.7-2.46,2.1-3.82,1.15-3.92,1.13-7.98,.66-12-.38-3.27-1-6.5-1.53-9.75-.04-.24-.14-.47-.21-.71-.08,0-.16-.01-.25-.02-.9,2.26-1.67,4.58-2.74,6.76-1.39,2.85-2.91,5.66-4.6,8.34-.67,1.07-1.82,1.97-2.95,2.59-.44,.24-.86,.36-1.26,.36-1.01,0-1.82-.75-2.14-1.99-.5-1.99-.03-3.9,.6-5.77,1.1-3.28,2.67-6.29,5.64-8.29,1.05-.71,2.16-1.34,3.43-1.34,.37,0,.75,.05,1.15,.17,.02,0,.03,0,.05,0,.21,0,.59-.3,.72-.53,.36-.6,.52-1.33,.93-1.88,.35-.45,.94-.95,1.44-.96,0,0,0,0,.01,0m-11.59,18.68c.35,0,.85-.26,1.15-.5,.57-.46,1.15-1,1.49-1.63,1.79-3.35,3.53-6.74,5.24-10.13,.2-.39,.17-.9,.25-1.35-.45-.02-.9-.07-1.35-.07-.08,0-.17,0-.25,0-.24,.01-.52,.13-.71,.29-1.17,1-2.5,1.89-3.43,3.08-2,2.59-3.36,5.49-3.45,8.98,.28,.45,.46,1.1,.86,1.28,.06,.03,.12,.04,.2,.04m11.59-19.68h-.03c-.88,.02-1.72,.71-2.21,1.35-.32,.42-.51,.88-.68,1.29-.1,.25-.2,.48-.31,.67-.36-.08-.72-.12-1.08-.12-1.54,0-2.83,.72-3.99,1.51-3.53,2.38-5.07,5.95-6.03,8.8-.66,1.96-1.19,4.09-.62,6.33,.43,1.69,1.62,2.75,3.11,2.75,.58,0,1.16-.16,1.74-.48,.84-.47,2.39-1.47,3.32-2.93,1.61-2.56,3.13-5.32,4.65-8.44,.64-1.31,1.18-2.67,1.69-4.01,.03,.18,.06,.37,.09,.55,.38,2.25,.78,4.57,1.04,6.85,.54,4.62,.34,8.3-.63,11.6-.31,1.06-1.02,2.11-1.7,3.13l-.2,.3c-.05,.02-.13,.03-.22,.04-.05-.08-.09-.2-.1-.26-.04-.38-.03-.79-.01-1.23,.02-.45,.03-.92-.01-1.41-.06-.65-.57-1.65-1.39-1.84-.1-.02-.2-.03-.31-.03-.7,0-1.65,.55-1.87,1.28-.62,2.06-.48,3.95,.42,5.61,.64,1.18,1.74,1.83,3.11,1.83,.16,0,.33,0,.5-.03,2.36-.25,3.53-1.93,4.36-3.54,1.5-2.92,1.89-6.1,2.08-9.1,.29-4.63-.47-9.19-1.21-13.6l-.11-.64c-.23-1.4-.63-2.89-1.21-4.54-.28-.8-1.28-1.69-2.19-1.69h0Zm-11.63,18.13c.13-2.83,1.19-5.49,3.23-8.13,.59-.76,1.39-1.4,2.24-2.08,.36-.28,.71-.57,1.05-.86,.02-.02,.08-.05,.11-.05,.06,0,.13,0,.2,0,.06,0,.13,0,.19,0-1.53,3.02-3.34,6.58-5.21,10.07-.28,.52-.84,1-1.23,1.32-.1,.08-.22,.15-.33,.2-.04-.08-.08-.17-.12-.24-.04-.08-.08-.16-.12-.24h0Z" fill="#231f20"/></g><g><path d="M174.72,78.64c-.92,0-1.79-.41-2.56-1.22-1.41-1.46-2.21-3.94-2.17-5.07,0-.15,.09-.62,.9-.62,.45,0,1.65,.16,1.74,.91,.07,.57,1.33,2.63,1.74,3.04,.05,0,.1,0,.16,0,.35,0,.65-.11,.7-.17l.23-.34c.71-1.07,1.45-2.19,1.77-3.35,1.44-5.31,.94-10.71,.19-15.77-.22-1.47-.5-2.96-.77-4.41-.06-.33-.13-.67-.19-1-.1,.24-.2,.48-.29,.72-.39,.94-.79,1.91-1.25,3.23-.47,3.44-1.31,5.88-3.2,9.24-.81,1.43-3.98,3.75-4.12,3.85-.64,.46-1.36,.71-2.1,.71-1.83,0-3.28-1.45-3.38-3.38-.09-1.68,.17-3.54,.75-5.39,1.01-3.25,2.15-6.92,5.54-9.03,.97-.6,2.26-.95,3.52-.95,.57,0,1.11,.07,1.61,.21,.1-.05,.29-.2,.36-.32,.78-1.06,1.57-1.58,2.37-1.58,2.14,0,3.19,3.56,3.34,4.44l.12,.74c.71,4.28,1.46,8.7,1.18,13.17-.18,3.02-.56,6.22-2.06,9.12-.82,1.58-1.86,3.07-3.91,3.21-.07,0-.21,0-.21,0Zm-10.18-14.44c.06,.12,.12,.25,.17,.38,.09,.2,.23,.53,.32,.58,.1,.04,.42,.1,.8,.1,.41,0,.6-.07,.63-.1,1.13-.86,2.42-1.97,2.61-2.34,1.89-3.56,2.63-5.63,3.45-9.65v-.07s.04-.06,.04-.06c.07-.14,.08-.36,.09-.6-.12-.03-.25-.06-.39-.1-.33-.08-.73-.19-.92-.19v-.5l-.02,.5c-.27,.02-.53,.1-.65,.21-1.18,.99-2.18,1.82-3.07,2.96-1.88,2.41-2.94,5.47-3.06,8.86Z" fill="#231f20"/><path d="M176.25,48.46c1.61,0,2.65,2.88,2.84,4.02,.76,4.56,1.58,9.13,1.3,13.8-.19,3.08-.56,6.12-2,8.92-.75,1.44-1.68,2.82-3.5,2.94-.06,0-.12,0-.17,0-2.73,0-4.29-4.41-4.24-5.77,0-.1,.17-.14,.4-.14,.48,0,1.21,.19,1.24,.47,.1,.8,1.74,3.37,2.04,3.45,.1,.03,.22,.04,.35,.04,.43,0,.95-.14,1.11-.39,.8-1.21,1.69-2.47,2.07-3.85,1.43-5.29,.99-10.64,.2-15.97-.32-2.15-.76-4.28-1.15-6.42-.13-.01-.26-.03-.39-.04-.63,1.64-1.21,2.84-1.93,4.91-.51,3.66-1.39,6-3.16,9.16-.61,1.09-2.95,2.95-3.97,3.69-.58,.42-1.21,.61-1.8,.61-1.47,0-2.79-1.16-2.88-2.9-.09-1.73,.21-3.56,.73-5.22,1.06-3.41,2.16-6.78,5.32-8.75,.87-.54,2.07-.88,3.25-.88,.53,0,1.06,.07,1.56,.21,.02,0,.04,0,.06,0,.23,0,.64-.32,.79-.58,.71-.96,1.36-1.33,1.94-1.33m-10.42,17.31c.37,0,.74-.05,.93-.2,.55-.42,2.43-1.91,2.75-2.51,1.82-3.42,2.64-5.56,3.5-9.78,.18-.35,.12-.82,.17-1.23-.41-.03-1.38-.38-1.84-.38-.02,0-.04,0-.06,0-.32,.03-.69,.12-.93,.32-1.18,.99-2.22,1.85-3.15,3.04-2.01,2.58-3.07,5.8-3.17,9.28,.26,.46,.42,1.16,.81,1.31,.19,.08,.59,.14,.99,.14m10.42-18.31c-.97,0-1.89,.59-2.74,1.74l-.03,.04-.02,.04s-.02,.02-.04,.04c-.48-.11-.99-.17-1.51-.17-1.35,0-2.73,.37-3.78,1.03-3.54,2.2-4.72,5.97-5.75,9.3-.59,1.91-.86,3.83-.77,5.57,.11,2.19,1.78,3.85,3.88,3.85,.84,0,1.67-.28,2.39-.8,.35-.25,3.41-2.51,4.26-4.01,1.91-3.39,2.77-5.86,3.27-9.41,.31-.87,.59-1.6,.86-2.26,.23,1.23,.46,2.49,.64,3.73,.74,5,1.24,10.35-.18,15.56-.29,1.09-1.01,2.16-1.7,3.21l-.16,.23c-.06,.02-.16,.04-.28,.05-.47-.58-1.4-2.17-1.48-2.61-.13-1.06-1.52-1.34-2.23-1.34-1.32,0-1.4,.99-1.4,1.11-.05,1.22,.81,3.87,2.31,5.43,.86,.9,1.88,1.37,2.92,1.37,.08,0,.16,0,.24,0,2.31-.16,3.48-1.85,4.32-3.48,1.54-2.98,1.92-6.24,2.11-9.31,.28-4.53-.47-8.99-1.19-13.3l-.12-.73c-.17-1.03-1.32-4.86-3.83-4.86h0Zm-11.21,16.64c.14-3.23,1.16-6.15,2.95-8.44,.86-1.1,1.84-1.91,2.97-2.86,.06-.05,.2-.1,.4-.12,.11,0,.51,.11,.76,.17l-.06,.12-.02,.12c-.81,3.96-1.54,6-3.4,9.51-.17,.29-1.3,1.28-2.42,2.14-.06,.01-.18,.03-.38,.03s-.38-.02-.5-.04c-.05-.1-.11-.24-.16-.34-.04-.1-.08-.19-.13-.29h0Z" fill="#231f20"/></g><g><path d="M117.05,210.62c-.39,0-1.08-.21-1.32-1.65-.35-2.08-.51-3.67-.54-5.15-.05-3.55-.05-7.15-.04-10.64v-4.41c-1.28,1.94-2.37,4.14-3.41,6.85-.28,.72-.53,1.45-.79,2.17-.41,1.16-.84,2.37-1.34,3.52l-.09,.23c-.22,.56-.58,1.49-1.66,1.49-.08,0-.16,0-.25-.02-1.35-.18-1.59-1.3-1.73-1.9-.32-1.45-.51-2.9-.7-4.3-.06-.45-.12-.9-.18-1.35-.03,.09-.05,.18-.08,.27-.36,1.24-.72,2.53-.99,3.8-.23,1.08-.4,2.2-.56,3.28-.15,.98-.3,1.96-.49,2.94l-.03,.16c-.08,.45-.26,1.52-1.26,1.52h-.15c-1-.12-1.28-.82-1.44-1.25-1.15-2.96-1.35-6-1.39-8.6-.03-1.71,0-3.45,.03-5.12l.03-1.76c0-.36,0-.81,.23-1.16,.04-.07,.08-.19,.12-.32,.12-.38,.33-1.09,1.21-1.09,.09,0,.2,0,.31,.03,1.29,.22,1.28,1.26,1.28,1.7v.15c.02,.95-.05,1.9-.11,2.82-.04,.57-.08,1.13-.1,1.7-.02,.61-.02,1.21-.02,1.82,.12-.42,.25-.85,.41-1.26,.6-1.54,1.15-2.8,1.86-4.01,.32-.54,1.19-1.01,1.87-1.01,.09,0,.17,0,.25,.02,.71,.14,1.42,1.03,1.56,1.7,.21,1.02,.31,2.07,.41,3.08,.04,.47,.09,.94,.15,1.42,0,.06,.02,.12,.03,.18,.02-.04,.03-.08,.05-.12,.36-.93,.73-1.89,1.19-2.81,1.38-2.77,2.65-5.16,3.88-7.3,.3-.53,1.1-1.93,2.46-1.93,.19,0,.38,.03,.57,.08,1.88,.52,1.89,2.6,1.89,3.38,0,1.86,0,3.72,0,5.59,0,2.92,0,5.84,.04,8.77,.02,1.35,.15,2.72,.28,4.06,.06,.62,.12,1.24,.17,1.85,0,.05,.02,.1,.03,.15,.04,.2,.1,.46-.04,.73-.05,.09-.08,.21-.12,.35-.1,.39-.25,.97-1.03,1.26-.14,.05-.29,.08-.43,.08Z" fill="#231f20"/><path d="M115.68,184.83c.14,0,.28,.02,.44,.06,1.33,.37,1.52,1.69,1.53,2.9,.03,4.79-.02,9.57,.05,14.36,.03,1.98,.29,3.96,.44,5.94,.02,.2,.12,.45,.04,.6-.25,.48-.11,1.09-.87,1.38-.09,.03-.18,.05-.25,.05-.57,0-.76-.84-.83-1.23-.28-1.68-.5-3.38-.53-5.08-.07-4.91-.04-9.82-.04-14.73,0-.42,0-.85,0-1.27-.13-.03-.26-.05-.39-.08-1.69,2.38-2.94,4.99-3.98,7.71-.72,1.89-1.32,3.83-2.12,5.68-.23,.54-.43,1.42-1.29,1.42-.06,0-.12,0-.19-.01-1.02-.13-1.18-.96-1.31-1.55-.42-1.89-.62-3.83-.9-5.75-.06-.42-.1-.84-.15-1.25-.13-.02-.27-.03-.4-.05-.5,1.84-1.08,3.66-1.47,5.52-.43,2.06-.65,4.16-1.06,6.23-.09,.44-.14,1.27-.8,1.27-.03,0-.06,0-.09,0-.75-.08-.9-.59-1.05-.99-1.05-2.68-1.28-5.51-1.33-8.35-.04-2.23,.03-4.46,.06-6.69,0-.36-.03-.8,.15-1.07,.27-.41,.18-1.19,.91-1.19,.07,0,.14,0,.23,.02,.98,.17,.85,.9,.86,1.37,.03,1.49-.16,2.99-.21,4.49-.04,1.19,0,2.38,0,3.57,.18,.02,.36,.05,.53,.07,.27-.96,.46-1.96,.83-2.89,.53-1.35,1.09-2.69,1.82-3.93,.23-.39,.95-.76,1.44-.76,.05,0,.1,0,.15,.01,.47,.09,1.06,.79,1.17,1.3,.3,1.46,.37,2.97,.54,4.46,.06,.47,.17,.94,.53,1.46,.55-1.35,1.02-2.74,1.67-4.04,1.23-2.46,2.5-4.89,3.86-7.28,.44-.77,1.08-1.68,2.03-1.68m0-1c-1.65,0-2.55,1.58-2.89,2.18-1.24,2.16-2.51,4.56-3.89,7.33-.18,.36-.35,.73-.5,1.09-.09-.9-.19-1.81-.37-2.72-.17-.84-1.02-1.9-1.95-2.08-.11-.02-.22-.03-.34-.03-.86,0-1.89,.56-2.3,1.25-.47,.79-.86,1.6-1.25,2.5,.01-.15,.02-.31,.03-.46,.07-.93,.13-1.9,.11-2.87v-.13c.01-1.26-.56-2-1.69-2.2-.14-.02-.27-.04-.4-.04-1.25,0-1.57,1.05-1.69,1.44-.02,.07-.04,.14-.07,.21-.31,.46-.3,1.02-.3,1.42v.17c0,.53-.02,1.06-.03,1.58-.03,1.68-.06,3.42-.03,5.14,.04,2.64,.24,5.74,1.4,8.7l.03,.06c.16,.42,.54,1.42,1.85,1.56,.07,0,.14,.01,.2,.01,1.42,0,1.67-1.45,1.75-1.93l.03-.15c.2-.99,.35-1.99,.5-2.96,.16-1.07,.33-2.19,.56-3.25,.12-.57,.26-1.14,.41-1.71,.15,1.08,.32,2.17,.56,3.25,.14,.66,.46,2.1,2.16,2.32,.11,.01,.22,.02,.32,.02,1.43,0,1.9-1.22,2.13-1.81,.03-.07,.06-.15,.08-.21,.51-1.17,.93-2.38,1.35-3.55,.26-.72,.51-1.45,.79-2.17,.77-2,1.57-3.72,2.45-5.26,0,.9,0,1.79,0,2.69,0,3.47,0,7.06,.04,10.6,.02,1.51,.19,3.12,.54,5.23,.31,1.87,1.37,2.07,1.81,2.07,.2,0,.4-.04,.61-.11,1.02-.38,1.23-1.18,1.33-1.61,.02-.09,.05-.2,.07-.24,.22-.42,.13-.84,.09-1.06,0-.03-.01-.06-.02-.09-.05-.61-.11-1.23-.17-1.85-.12-1.32-.25-2.69-.27-4.02-.04-2.92-.04-5.89-.04-8.76,0-1.86,0-3.73,0-5.59,0-.8-.02-3.23-2.26-3.86-.24-.07-.47-.1-.71-.1h0Z" fill="#231f20"/></g><g><path d="M86.29,72.44c-.21,0-.44-.02-.67-.07-1.22-.24-2.08-1.08-2.48-2.42-1.64-5.51-.56-10.54,3.22-14.95,1.09-1.27,2.46-1.95,3.94-1.95,.49,0,.99,.08,1.5,.22,.1,.03,.19,.04,.25,.04,.09,0,.2,0,.34-.37l.06-.16c.1-.26,.22-.56,.46-.8,.51-.49,.88-.71,1.22-.71h.08l.14,.03c.51,.16,1.03,.74,1.13,1.28s.12,1.12,.15,1.67c.01,.34,.03,.68,.06,1.02,.29,2.91,.59,5.81,.89,8.72l.32,3.09c.02,.21,.05,.43,.08,.65,.07,.48,.16,1.15-.22,1.63-.22,.28-.55,.44-.98,.48-.07,0-.13,0-.19,0-1.21,0-1.35-1.21-1.41-1.72-.29-2.53-.6-5.06-.91-7.59-.09,.28-.18,.56-.27,.84-.62,1.91-1.25,3.88-1.97,5.79-.51,1.35-1.31,2.62-2.03,3.68-.69,1.02-1.63,1.56-2.71,1.56Zm4.23-16.64c-1.11,0-1.99,.59-2.87,1.91-1.71,2.58-2.56,5.58-2.52,8.9,.03,.18,.05,.42,.07,.64,.04,.41,.07,.74,.18,.99,.47,1.07,.72,1.18,.76,1.19,.13-.02,.5-.3,1.05-.84,.17-.17,.3-.45,.43-.75,.06-.12,.11-.25,.17-.37,1.62-3.24,2.53-6.81,3.4-10.26l.2-.77c.05-.2,.05-.35,0-.42-.04-.05-.17-.17-.66-.2-.08,0-.15,0-.22,0Z" fill="#231f20"/><path d="M94.14,51.79s.04,0,.07,0c.33,.1,.72,.54,.78,.89,.16,.87,.12,1.77,.2,2.65,.39,3.94,.8,7.88,1.21,11.82,.02,.22,.05,.44,.08,.66,.09,.69,.18,1.45-.75,1.55-.05,0-.09,0-.14,0-.71,0-.84-.65-.91-1.28-.31-2.68-.63-5.37-.96-8.05-.05-.42-.14-.84-.22-1.26-.06,.02-.13,.05-.19,.07-.9,2.72-1.73,5.47-2.74,8.16-.47,1.26-1.21,2.45-1.97,3.57-.55,.81-1.31,1.34-2.3,1.34-.18,0-.37-.02-.57-.06-1.16-.23-1.79-1.03-2.1-2.07-1.61-5.39-.51-10.25,3.12-14.48,.94-1.09,2.15-1.77,3.56-1.77,.43,0,.89,.07,1.35,.2,.15,.04,.28,.06,.4,.06,.4,0,.63-.24,.81-.67,.11-.27,.2-.59,.4-.78,.24-.24,.63-.57,.87-.57m-8.01,18.12c.41,0,1.02-.58,1.43-.98,.33-.32,.49-.82,.7-1.25,1.77-3.53,2.67-7.35,3.64-11.14,.24-.93-.36-1.19-1.11-1.24-.09,0-.17,0-.26,0-1.52,0-2.51,.97-3.28,2.13-1.87,2.83-2.64,5.99-2.6,9.18,.11,.73,.08,1.33,.29,1.82,.25,.57,.63,1.36,1.1,1.48,.03,0,.06,.01,.09,.01m8.01-19.12c-.48,0-.95,.25-1.57,.85-.32,.31-.47,.7-.58,.98l-.06,.14s0,.02-.01,.03c-.54-.16-1.09-.24-1.62-.24-1.63,0-3.13,.73-4.32,2.12-3.9,4.55-5.01,9.74-3.32,15.42,.58,1.93,1.87,2.57,2.86,2.77,.26,.05,.52,.08,.77,.08,1.24,0,2.35-.63,3.12-1.78,.73-1.08,1.56-2.38,2.08-3.78,.56-1.49,1.06-3,1.55-4.5,.21,1.78,.43,3.56,.63,5.34,.17,1.44,.81,2.16,1.91,2.16,.08,0,.15,0,.24-.01,.71-.07,1.11-.4,1.32-.67,.51-.65,.4-1.46,.32-2-.03-.21-.05-.42-.08-.63l-.29-2.79c-.31-3.01-.62-6.01-.92-9.02-.03-.33-.05-.66-.06-.99-.02-.56-.05-1.15-.16-1.74-.13-.72-.78-1.46-1.47-1.67-.11-.04-.24-.05-.36-.05h0Zm-8.5,15.74c-.03-3.2,.79-6.07,2.43-8.55,.78-1.18,1.52-1.68,2.45-1.68,.06,0,.12,0,.19,0,.09,0,.15,.01,.21,.02l-.19,.74c-.87,3.43-1.77,6.97-3.37,10.17-.06,.13-.12,.26-.18,.39-.1,.23-.22,.49-.32,.59-.11,.11-.4,.39-.62,.56-.09-.14-.22-.37-.38-.75-.08-.18-.11-.49-.14-.84-.02-.21-.04-.43-.07-.66h0Z" fill="#231f20"/></g><g><path d="M105.86,71.07c-1.97,0-3.57-1.59-4.39-4.37-1.23-4.17-.91-8.6,.97-13.56,.16-.42,.38-.84,.66-1.27,.58-.89,1.43-1.9,2.89-1.9,.16,0,.32,.01,.5,.04,1.39,.21,2.32,1.19,2.62,2.77,.44,2.31,.67,4.65,.87,6.85,.05,.6-.38,1.28-1.04,1.63-.14,.07-.28,.11-.42,.11-.38,0-.91-.25-1.2-1.47-.15-.62-.19-1.26-.22-1.88-.01-.24-.03-.49-.05-.73l-.04-.49h.05c-.03-.18-.05-.35-.08-.52-.14-.87-.28-1.78-.49-2.64-.07-.29-.3-.64-.41-.69-.05,.03-.38,.27-.55,.51-1.53,2.25-1.8,4.93-1.87,7.03-.07,2.23-.06,4.39,.91,6.4,.42,.88,.91,1.32,1.44,1.32,.4,0,.87-.23,1.41-.67,1.92-1.6,3.09-3.71,4.26-6.39,.07-.16,.14-.33,.2-.5,.15-.4,.31-.82,.57-1.19,.24-.38,.48-.67,1.21-.67,.06,0,.12,0,.19,0,.47,.03,.71,.25,.82,.42,.27,.42,.07,.93-.02,1.15l-.33,.84c-1.07,2.73-2.17,5.56-4.36,7.78-1.39,1.41-2.77,2.12-4.09,2.12Z" fill="#231f20"/><path d="M105.99,50.45c.14,0,.28,.01,.42,.03,1.37,.2,1.99,1.26,2.2,2.37,.43,2.24,.66,4.53,.87,6.8,.03,.35-.26,.87-.78,1.14-.07,.03-.13,.05-.19,.05-.4,0-.63-.74-.71-1.09-.2-.82-.18-1.69-.26-2.53,.03,0,.06,0,.09,0-.21-1.24-.38-2.49-.66-3.71-.1-.41-.44-.99-.77-1.06-.02,0-.04,0-.07,0-.31,0-.8,.39-1.02,.72-1.49,2.19-1.87,4.74-1.96,7.29-.07,2.24-.06,4.52,.96,6.63,.51,1.06,1.14,1.6,1.89,1.6,.52,0,1.09-.26,1.73-.79,2.11-1.76,3.33-4.12,4.4-6.57,.24-.54,.4-1.13,.72-1.61,.16-.23,.21-.46,.79-.46,.05,0,.1,0,.16,0,.73,.04,.44,.69,.35,.92-1.18,2.99-2.24,6.07-4.56,8.42-1.35,1.36-2.62,1.97-3.74,1.97-1.78,0-3.18-1.54-3.91-4.01-1.33-4.49-.68-8.93,.96-13.25,.16-.41,.37-.81,.61-1.18,.61-.93,1.33-1.68,2.47-1.68m0-1c-1.73,0-2.72,1.22-3.31,2.13-.3,.46-.54,.92-.71,1.37-1.92,5.07-2.25,9.61-.98,13.88,.89,3.01,2.66,4.73,4.87,4.73,1.46,0,2.96-.76,4.45-2.27,2.26-2.29,3.38-5.16,4.46-7.94l.32-.82c.12-.29,.4-.99-.01-1.63-.14-.23-.49-.61-1.21-.65-.08,0-.15,0-.22,0-.94,0-1.33,.42-1.59,.84l-.04,.06c-.29,.43-.47,.89-.62,1.3-.06,.16-.12,.32-.19,.48-1.14,2.61-2.28,4.67-4.13,6.21-.58,.48-.93,.56-1.09,.56-.43,0-.8-.65-.99-1.04-.92-1.9-.93-4-.86-6.17,.07-2.15,.34-4.63,1.78-6.76,.01-.02,.02-.03,.04-.05,0,.02,.01,.04,.02,.06,.2,.85,.33,1.7,.48,2.6,.01,.08,.03,.17,.04,.25l.03,.73c.02,.24,.03,.48,.05,.71,.04,.64,.07,1.3,.23,1.97,.37,1.53,1.12,1.85,1.69,1.85,.22,0,.44-.06,.65-.17,.84-.44,1.38-1.31,1.31-2.12-.2-2.21-.43-4.57-.88-6.9-.34-1.78-1.45-2.93-3.04-3.17-.19-.03-.39-.04-.57-.04h0Z" fill="#231f20"/></g><g><path d="M70.71,73.78c-1.31,0-2.55-.63-3.51-1.77-1.29-1.54-2-3.51-2.11-5.84-.21-4.48,.9-7.96,3.39-10.64,.49-.53,1.16-.97,1.83-1.22,.38-.14,.78-.21,1.18-.21,1.19,0,2.27,.62,2.81,1.62,.79,1.45,.39,3.41-.92,4.55-1.23,1.07-2.74,1.63-4.51,1.68-.68,.02-.72,.16-.75,.55-.06,.9-.13,1.8-.21,2.79l-.11,1.36c.11,.28,.21,.58,.32,.88,.28,.8,.57,1.63,1.02,2.36,.48,.77,1.07,1.19,1.66,1.19h0c.55,0,1.09-.35,1.57-1.02,.83-1.17,1.5-2.5,2.15-3.79,.23-.46,.46-.91,.69-1.36,.11-.2,.18-.43,.26-.68,.11-.33,.22-.67,.42-.99,.23-.37,.53-.74,1.36-.78h0c.37,0,.63,.12,.8,.35,.31,.42,.19,1.03,.12,1.27-.83,2.91-1.93,5.94-4.3,8.31-.92,.92-2.01,1.4-3.17,1.4Zm.78-16.95c-.2,0-.47,.15-.66,.36-.5,.55-.97,1.15-1.42,1.74-.08,.1-.16,.2-.23,.3,.96,0,1.78-.39,2.38-1.1,.23-.27,.3-.98,.2-1.14-.09-.14-.19-.16-.27-.16Z" fill="#231f20"/><path d="M71.5,54.6c1,0,1.92,.52,2.37,1.36,.66,1.23,.34,2.93-.81,3.94-1.19,1.04-2.64,1.52-4.19,1.56-.78,.02-1.18,.22-1.23,1.02-.09,1.32-.2,2.64-.33,4.26,.41,1.02,.74,2.33,1.43,3.43,.59,.94,1.33,1.42,2.08,1.42,.69,0,1.38-.4,1.97-1.23,1.15-1.6,1.96-3.45,2.88-5.22,.27-.52,.35-1.15,.66-1.64,.17-.27,.33-.51,.95-.54,.01,0,.02,0,.03,0,.59,0,.46,.72,.38,.99-.85,2.97-1.93,5.85-4.17,8.09-.84,.84-1.83,1.25-2.81,1.25-1.13,0-2.25-.54-3.13-1.59-1.34-1.61-1.9-3.54-1.99-5.54-.18-3.8,.56-7.37,3.26-10.28,.44-.47,1.04-.87,1.64-1.09,.33-.12,.68-.18,1.01-.18m-2.35,5.14c1.1,0,2.08-.43,2.79-1.28,.33-.4,.49-1.35,.24-1.74-.18-.28-.43-.39-.69-.39-.36,0-.75,.22-1.03,.52-.73,.8-1.37,1.69-2.04,2.54,.09,.11,.18,.21,.28,.32,.15,.02,.31,.02,.46,.02m2.35-6.14h0c-.46,0-.92,.08-1.35,.24-.75,.27-1.48,.77-2.03,1.35-2.59,2.79-3.75,6.39-3.53,11.01,.12,2.45,.86,4.51,2.22,6.14,1.05,1.26,2.44,1.95,3.89,1.95,1.27,0,2.52-.55,3.52-1.55,2.45-2.45,3.57-5.54,4.42-8.52,.11-.39,.23-1.14-.2-1.71-.27-.35-.67-.55-1.15-.55h-.08c-1.02,.05-1.45,.51-1.76,1.01-.23,.37-.36,.76-.47,1.1-.07,.23-.14,.44-.23,.6-.24,.45-.47,.92-.7,1.38-.67,1.33-1.3,2.59-2.1,3.72-.37,.52-.79,.81-1.16,.81-.41,0-.86-.35-1.24-.95-.42-.67-.7-1.48-.97-2.25-.1-.28-.19-.54-.29-.8l.09-1.19c.08-1.02,.15-1.93,.22-2.85,0-.03,0-.05,0-.07,.05,0,.14-.02,.26-.02,1.88-.05,3.51-.66,4.82-1.8,1.48-1.29,1.93-3.51,1.04-5.16-.63-1.16-1.87-1.88-3.25-1.88h0Zm-1.07,4.83c.25-.31,.5-.61,.76-.9,.03-.03,.06-.06,.09-.09-.02,.15-.07,.31-.12,.38-.22,.25-.46,.46-.74,.61h0Z" fill="#231f20"/></g><g><path d="M131.68,206.83c-.01-.14-.05-.29-.08-.44-.1-.45-.21-.95,.06-1.35,1.49-2.21,2.92-4.18,4.36-6.04,.56-.72,.59-1.15,.13-1.93-1.21-2.04-2.3-4.2-3.19-6.04-.04-.09-.41-.87-.16-1.51,.1-.27,.29-.46,.55-.56,.14-.06,.3-.09,.46-.09,.61,0,1.21,.44,1.5,.87,.77,1.17,1.49,2.38,2.19,3.56,.3,.51,.61,1.02,.91,1.53,.1,.17,.22,.33,.35,.52,.15-.15,.29-.3,.42-.45l4.42-5.18,.1-.12c.18-.22,.39-.49,.72-.61,.09-.03,.18-.08,.28-.12,.26-.12,.56-.27,.89-.27,.24,0,.46,.07,.65,.22,.63,.48,.42,1.34-.03,1.94-1.43,1.87-3.13,4.08-4.94,6.2-.75,.88-.88,1.32-.17,2.17,.9,1.09,1.7,2.27,2.48,3.42,.33,.49,.66,.98,1,1.46,.06,.08,.12,.16,.19,.23,.21,.25,.45,.53,.49,.9,0,.08,.02,.17,.04,.27,.08,.52,.21,1.3-.42,1.74-.19,.13-.42,.2-.67,.2-.58,0-1.24-.39-1.54-.76-1.02-1.27-1.99-2.62-2.92-3.91-.35-.49-.71-.98-1.07-1.47-.09-.12-.19-.25-.3-.39l-3.79,5.26c-.04,.05-.08,.12-.11,.18-.14,.23-.31,.52-.62,.65-.38,.15-.77,.22-1.14,.29-.14,.03-.28,.05-.42,.08l-.55,.12-.05-.56Z" fill="#231f20"/><path d="M145.58,189.11c.12,0,.24,.03,.34,.12,.41,.32,.09,.96-.12,1.24-1.6,2.09-3.22,4.18-4.92,6.18-.82,.97-1.1,1.69-.17,2.81,1.26,1.52,2.31,3.22,3.45,4.84,.21,.3,.56,.58,.59,.9,.05,.5,.28,1.22-.17,1.54-.11,.08-.24,.11-.38,.11-.43,0-.94-.31-1.15-.57-1.39-1.74-2.66-3.57-3.98-5.37-.18-.25-.38-.49-.73-.93-1.48,2.06-2.83,3.93-4.17,5.8-.17,.23-.29,.57-.52,.66-.47,.19-.99,.24-1.49,.35-.05-.5-.32-1.14-.1-1.46,1.38-2.05,2.82-4.06,4.34-6.01,.68-.87,.74-1.52,.16-2.49-1.16-1.95-2.18-3.97-3.18-6.01-.18-.36-.38-1.19,.13-1.39,.09-.04,.18-.05,.27-.05,.44,0,.89,.36,1.08,.64,1.09,1.65,2.07,3.38,3.09,5.08,.19,.31,.41,.59,.72,1.03,.34-.35,.61-.61,.86-.9,1.48-1.73,2.94-3.46,4.42-5.18,.18-.21,.37-.5,.61-.58,.31-.11,.67-.36,1-.36m0-1c-.45,0-.83,.18-1.11,.31-.08,.04-.15,.08-.22,.1-.46,.16-.74,.51-.94,.76l-.09,.11c-.72,.85-1.45,1.7-2.17,2.54-.74,.87-1.48,1.74-2.23,2.61-.3-.5-.59-.99-.89-1.49-.7-1.19-1.43-2.42-2.21-3.6-.35-.52-1.1-1.09-1.91-1.09-.22,0-.44,.04-.65,.12-.38,.15-.68,.46-.83,.85-.32,.82,.09,1.74,.18,1.91,.9,1.85,1.99,4.01,3.21,6.08,.36,.6,.34,.81-.09,1.36-1.45,1.86-2.89,3.84-4.38,6.06-.39,.57-.24,1.24-.14,1.73,.03,.13,.06,.26,.07,.38l.1,1.12,1.1-.24c.13-.03,.27-.05,.41-.08,.38-.07,.82-.15,1.24-.32,.48-.19,.71-.59,.87-.86,.03-.05,.06-.1,.09-.15l3.22-4.48,.17-.23c.32,.44,.63,.87,.95,1.31,.94,1.31,1.91,2.66,2.94,3.94,.38,.47,1.16,.94,1.93,.94,.35,0,.68-.1,.96-.29,.89-.62,.72-1.66,.63-2.22-.01-.09-.03-.17-.04-.25-.06-.53-.38-.9-.61-1.17-.06-.07-.11-.13-.16-.2-.34-.48-.67-.97-1-1.46-.78-1.15-1.59-2.35-2.5-3.45-.47-.57-.51-.74,.16-1.52,1.81-2.14,3.52-4.34,4.95-6.22,.72-.95,.7-2.06-.06-2.64-.28-.21-.61-.32-.95-.32h0Z" fill="#231f20"/></g><g><path d="M124.91,70.24l-.36-.15c-.79-.32-1.68-.68-2.05-1.4-.86-1.66-1.79-3.63-2.26-5.75-.44-2-.73-4.07-1.02-6.06-.16-1.17-.33-2.33-.52-3.49-.03-.18-.26-.43-.46-.64-.07-.08-.14-.15-.21-.23-.03,0-.28-.06-.43-.1-.45-.1-.96-.22-1.02-.7-.1-.77,1.4-1.53,1.42-1.54,.42-.18,.46-.38,.42-1.06l-.1-1.41c-.09-1.29-.19-2.62-.22-3.93-.01-.59,.31-1.33,.75-1.7,.23-.2,.51-.3,.79-.3,.68,0,1.23,.57,1.34,1.39,.1,.71,.15,1.43,.21,2.12,.02,.3,.11,1.39,.11,1.39h-.13c.02,.19,.04,.38,.06,.58,.07,.68,.16,1.45,.18,1.86,0,.08,.01,.19,.66,.19,.23,0,.49-.01,.77-.03l.33-.02c.27,0,.51,.15,.73,.44,.16,.21,.33,.52,.25,.82-.12,.46-.44,1.07-.93,1.25-.11,.04-.27,.09-.44,.14-.3,.09-1.09,.32-1.2,.51,.38,3.98,.89,8.66,2.44,13.11l.08,.23c.33,.99,.62,1.84,1.67,2.11,.4,.1,.63,.6,.71,.8,.13,.34,.13,.6,0,.8-.22,.33-.8,.81-1.28,.81h-.1l-.17-.05Z" fill="#231f20"/><path d="M119.64,42.28c.4,0,.76,.38,.85,.96,.14,.99,.18,1.99,.27,2.98h-.14c.06,.68,.25,2.26,.29,2.92,.03,.54,.48,.66,1.16,.66,.33,0,.7-.03,1.12-.05,0,0,0,0,0,0,.16,0,.52,.46,.47,.63-.09,.35-.33,.8-.62,.91-.53,.2-2.01,.48-1.95,1.1,.41,4.51,.96,8.99,2.45,13.29,.38,1.09,.69,2.29,2.09,2.66,.21,.06,.5,.7,.41,.85-.17,.26-.62,.59-.86,.59-.03,0-.05,0-.07-.01-.78-.33-1.82-.67-2.16-1.32-.92-1.79-1.79-3.68-2.22-5.63-.69-3.14-1-6.36-1.53-9.53-.07-.41-.48-.77-.78-1.12-.22-.26-1.3-.28-1.33-.53-.04-.27,.85-.9,1.11-1.01,.77-.32,.77-.91,.73-1.56-.12-1.77-.28-3.55-.32-5.32-.01-.44,.24-1.03,.57-1.31,.15-.13,.31-.18,.46-.18m0-1h0c-.4,0-.79,.15-1.11,.42-.56,.48-.94,1.34-.92,2.09,.03,1.32,.13,2.65,.22,3.94,.03,.48,.07,.95,.1,1.43,0,.11,.03,.43,0,.51,0,0,0,0,0,0,0,0-.03,.02-.11,.05-.02,0-1.87,.89-1.72,2.06,.11,.82,.92,1.01,1.4,1.12,.08,.02,.2,.04,.28,.07,.03,.04,.06,.07,.1,.11,.12,.13,.31,.34,.34,.43,.19,1.12,.35,2.31,.51,3.45,.28,2,.57,4.08,1.02,6.1,.48,2.17,1.43,4.18,2.31,5.87,.45,.88,1.48,1.3,2.31,1.64,.12,.05,.23,.1,.35,.14,.15,.06,.3,.09,.47,.09,.7,0,1.41-.6,1.7-1.03,.23-.34,.25-.76,.06-1.26-.13-.35-.44-.95-1.05-1.11-.75-.2-.97-.75-1.32-1.79l-.08-.23c-1.48-4.27-2.01-8.78-2.37-12.71,.24-.11,.62-.22,.8-.27,.18-.05,.35-.1,.47-.15,.86-.32,1.18-1.38,1.24-1.59,.13-.5-.11-.95-.34-1.25-.32-.42-.7-.64-1.1-.64h-.05s-.33,.02-.33,.02c-.27,.01-.52,.03-.74,.03-.07,0-.13,0-.18,0-.03-.43-.1-1.02-.16-1.59,0-.02,0-.04,0-.06h.12s-.09-1.01-.09-1.01c-.03-.3-.05-.59-.07-.89-.05-.7-.11-1.43-.21-2.15-.15-1.06-.92-1.83-1.84-1.83h0Z" fill="#231f20"/></g><g><path d="M55.39,78.29c-.52,0-1.22-.51-1.38-.99-.47-1.48-.83-2.84-1.07-4.14-.76-4.01-1.44-7.95-2.01-11.26-.02-.09-.04-.19-.06-.29-.11-.44-.24-.98,.05-1.44,.17-.27,.45-.44,.83-.52,.11-.02,.21-.03,.31-.03,1.05,0,1.26,1.05,1.38,1.67,0,0,.8,3.91,.97,4.73,.05-.13,.11-.27,.17-.4,.56-1.34,1.13-2.74,1.9-3.99,.6-.98,1.6-1.67,2.58-2.33l.44-.3c.09-.06,.41-.26,.85-.26,.31,0,.88,.11,1.21,.82,.52,1.09-.33,1.59-.61,1.76l-.09,.06c-2.25,1.43-3.17,3.62-3.87,6.45-.63,2.6-.75,5.35-.33,8.19l.02,.14c.05,.27,.11,.6-.04,.91-.27,.55-.57,1.1-1.08,1.21h-.05s-.12,.02-.12,.02Z" fill="#231f20"/><path d="M60.35,59.23c.27,0,.57,.12,.76,.53,.36,.76-.22,.98-.52,1.18-2.49,1.59-3.43,4.09-4.08,6.76-.68,2.77-.75,5.57-.34,8.38,.04,.26,.13,.56,.03,.77-.18,.37-.44,.87-.75,.95-.02,0-.04,0-.06,0-.29,0-.81-.36-.9-.64-.43-1.34-.8-2.7-1.06-4.08-.71-3.74-1.37-7.5-2.01-11.26-.1-.59-.52-1.49,.42-1.68,.08-.02,.15-.02,.21-.02,.68,0,.79,.77,.92,1.37,.37,1.81,.74,3.63,1.12,5.44,.05,.23,.16,.46,.22,.6,.86-1.93,1.53-3.9,2.6-5.65,.63-1.04,1.84-1.76,2.88-2.48,.11-.08,.33-.17,.56-.17m0-1c-.4,0-.82,.13-1.13,.35-.14,.1-.29,.2-.44,.3-.97,.66-2.07,1.41-2.73,2.48-.58,.95-1.05,1.96-1.48,2.97-.06-.29-.12-.59-.18-.88l-.44-2.16-.02-.1c-.13-.62-.42-2.07-1.87-2.07-.13,0-.27,.01-.41,.04-.65,.13-.99,.47-1.16,.74-.41,.64-.23,1.35-.12,1.83,.02,.09,.04,.18,.06,.26,.53,3.09,1.24,7.17,2.01,11.27,.25,1.32,.6,2.69,1.09,4.19,.22,.69,1.12,1.34,1.85,1.34,.1,0,.2-.01,.29-.03,.79-.18,1.18-1,1.42-1.48,.22-.46,.14-.92,.08-1.22l-.02-.13c-.41-2.77-.3-5.46,.32-8,.66-2.72,1.54-4.81,3.65-6.15l.08-.05c1.32-.78,1.07-1.84,.8-2.4-.33-.7-.94-1.1-1.67-1.1h0Z" fill="#231f20"/></g><g><path d="M124.79,209.44c-1.02,0-1.34-.84-1.49-1.24-.38-.98-.58-1.87-.61-2.7-.16-4.14-.28-8.29-.39-12.43l-.08-2.65c-.01-.49,.02-1.2,.47-1.67,.27-.28,.64-.42,1.1-.42,1.53,.02,1.54,1.44,1.54,2.12,0,1.78,0,3.56,0,5.34v2.55s-.11,0-.11,0l.16,1.85c.21,2.36,.42,4.8,.57,7.21,.03,.51,.03,1.25-.39,1.69-.2,.21-.47,.33-.77,.33Z" fill="#231f20"/><path d="M123.79,188.83s.01,0,.02,0c1.01,.01,1.02,.89,1.02,1.63,.01,2.48,0,4.95,0,7.43-.05,0-.1,0-.15,.01,.27,3.18,.57,6.37,.77,9.56,.03,.48,.04,1.49-.66,1.49s-.89-.58-1.05-.98c-.3-.78-.52-1.64-.55-2.48-.19-5.02-.33-10.05-.47-15.07-.02-.78,.12-1.58,1.07-1.58m0-1c-.74,0-1.2,.31-1.46,.57-.58,.6-.63,1.45-.61,2.03l.07,2.62c.12,4.08,.24,8.31,.4,12.46,.03,.88,.24,1.82,.62,2.8l.02,.05c.16,.43,.6,1.57,1.96,1.57,.44,0,.84-.17,1.14-.48,.55-.58,.56-1.46,.52-2.07-.15-2.42-.36-4.87-.57-7.24-.04-.45-.08-.89-.12-1.34h.07v-2.98c0-1.79,0-3.59,0-5.38,0-.64-.01-2.6-2.01-2.62h-.03Z" fill="#231f20"/></g><g><path d="M132.48,68.99c-.79,0-1.29-.62-1.38-1.24-.18-1.26-.21-2.35-.09-3.34,.07-.62,.88-1.54,1.56-1.6h0c.61,0,.98,.45,1.31,.84,.1,.12,.2,.24,.29,.33,.45,.43,.01,3.5-.03,3.69-.13,.58-.67,1.25-1.54,1.32h-.14Z" fill="#231f20"/><path d="M132.66,63.3c.42,0,.82,.68,1.19,1.03,.1,.09,.03,2.3-.17,3.22-.07,.33-.42,.88-1.1,.93-.03,0-.06,0-.09,0-.6,0-.84-.52-.89-.81-.15-1.06-.21-2.14-.09-3.21,.05-.39,.67-1.12,1.11-1.16,.01,0,.02,0,.03,0m0-1h-.12c-.95,.09-1.92,1.21-2.02,2.04-.12,1.03-.1,2.17,.09,3.47,.12,.83,.8,1.67,1.88,1.67,.06,0,.12,0,.18,0,1.12-.1,1.82-.96,1.99-1.71,0-.03,.63-3.45-.11-4.16-.08-.08-.17-.18-.25-.29-.36-.43-.86-1.02-1.63-1.02h0Z" fill="#231f20"/></g><g><path d="M123.69,185.78c-1.29,0-1.4-1.19-1.46-1.83-.01-.16-.03-.31-.05-.45-.12-.62-.13-1.23-.02-1.76,.08-.43,.54-1.24,1.11-1.24,.52,0,1.24,.37,1.47,.88,.2,.45,.25,.92,.31,1.38,.02,.15,.03,.29,.06,.44,.07,.22-.01,.53-.18,1-.49,1.39-.88,1.58-1.21,1.58h-.01Z" fill="#231f20"/><path d="M123.26,181h0c.35,0,.87,.28,1.01,.58,.24,.53,.24,1.17,.34,1.77,.08,.06-.53,1.92-.91,1.93h-.01c-1.06,0-.88-1.13-1.02-1.87-.1-.51-.12-1.07-.02-1.57,.06-.32,.41-.83,.62-.83m0-1c-.91,0-1.49,1.07-1.6,1.64-.11,.59-.1,1.26,.02,1.95,.02,.13,.03,.26,.05,.41,.06,.62,.2,2.28,1.95,2.28,.73,0,1.24-.58,1.71-1.93,.14-.39,.3-.85,.19-1.26-.02-.13-.03-.26-.05-.39-.05-.47-.12-1.01-.35-1.53-.32-.71-1.24-1.17-1.91-1.18h0s-.01,0-.01,0h0Z" fill="#231f20"/></g></g><g><path d="M40.38,144.63c.65,.17,1.04,.26,1.17,.26,.19,0,.33-.05,.42-.14,.09-.09,.18-.22,.27-.38h.54l-.91,4.12-.56-.1c.02-.25,.03-.39,.03-.43s0-.11,0-.19c0-.93-.22-1.62-.66-2.07-.44-.45-1-.68-1.68-.68-1.38,0-2.59,.91-3.61,2.72-.92,1.62-1.38,3.26-1.38,4.94,0,1.22,.28,2.06,.85,2.51,.57,.45,1.19,.67,1.85,.67,.87,0,1.7-.28,2.47-.85,.42-.31,.84-.72,1.26-1.25l.54,.39c-.62,.89-1.35,1.56-2.2,1.99s-1.71,.65-2.58,.65c-1.43,0-2.61-.41-3.55-1.24-.93-.83-1.4-1.94-1.4-3.32,0-2.12,.72-3.96,2.15-5.51,1.43-1.56,3.13-2.34,5.1-2.34,.61,0,1.24,.09,1.89,.26Z"/><path d="M42.21,155.98c.39-.05,.67-.13,.83-.24,.27-.18,.48-.52,.62-1.02l2.19-7.89c.06-.22,.11-.41,.14-.56s.05-.29,.05-.4c0-.3-.08-.49-.25-.56s-.52-.14-1.06-.18v-.46h5.19c1.76,0,3.09,.44,4.01,1.33,.92,.89,1.37,2.07,1.37,3.56,0,1.79-.68,3.35-2.03,4.68-1.51,1.47-3.48,2.21-5.93,2.21h-5.13v-.46Zm10.02-9.58c-.47-.79-1.27-1.18-2.42-1.18-.38,0-.64,.06-.78,.18-.14,.12-.23,.29-.29,.49l-2.46,8.89c-.02,.09-.04,.16-.05,.23,0,.07-.01,.13-.01,.18,0,.23,.07,.4,.21,.5,.14,.1,.4,.16,.77,.16,2.12,0,3.66-1.08,4.61-3.23,.58-1.31,.87-2.68,.87-4.14,0-.87-.15-1.56-.45-2.08Z"/><path d="M56.9,151.42h4.39l-.86,2.04h-4.38l.86-2.04Z"/><path d="M61.11,155.98c.42-.05,.74-.15,.94-.31,.2-.15,.37-.47,.51-.95l2.19-7.9c.05-.16,.08-.3,.11-.42,.05-.25,.08-.44,.08-.58,0-.28-.08-.46-.25-.53-.16-.08-.51-.13-1.06-.18v-.46h4.91c1.1,0,1.95,.11,2.55,.32,1.11,.39,1.66,1.13,1.66,2.24,0,.37-.09,.76-.28,1.17-.19,.42-.5,.79-.93,1.13-.31,.24-.67,.44-1.08,.58-.24,.09-.63,.19-1.14,.31,.06,.18,.1,.29,.12,.34l1.38,3.97c.19,.53,.38,.87,.6,1.01,.21,.15,.54,.23,.97,.24v.46h-3.6l-1.93-5.82h-.5l-1.06,3.66-.15,.61s-.02,.1-.03,.15,0,.11,0,.17c0,.31,.08,.51,.23,.59s.51,.14,1.07,.19v.46h-5.32v-.46Zm6.85-6.06c.55-.12,.98-.34,1.28-.67,.2-.23,.39-.55,.57-.97,.18-.42,.27-.86,.27-1.34s-.12-.9-.37-1.22c-.25-.32-.67-.49-1.26-.49-.25,0-.43,.05-.54,.16-.11,.11-.2,.31-.29,.62l-1.08,4.03c.63-.01,1.11-.05,1.42-.12Z"/></g></g></svg>