<?xml version="1.0" encoding="UTF-8"?><svg id="i" xmlns="http://www.w3.org/2000/svg" viewBox="0 0 160 266"><path d="M139.96,6.45H25.04c-5.35,0-9.7,4.35-9.7,9.7v2.29c0,2.27,.79,4.37,2.1,6.02L6.12,51.76c-.4,.96-.61,2-.61,3.07V247.82l.2,.67,.1,.57,.36,.83c.37,.86,.9,1.65,1.56,2.35l.49,.52,.42,.3c.33,.25,.67,.48,1.03,.68l17.94,9.84c1.18,.65,2.51,.98,3.85,.98h102.1c1.34,0,2.67-.34,3.84-.98l17.95-9.84c.42-.23,.81-.49,1.18-.8,.28-.22,.53-.46,.78-.72,.64-.67,1.17-1.47,1.55-2.34l.35-.81,.1-.57,.2-.67v-1.11s0-192.15,0-192.15c0-.96-.17-1.9-.51-2.8v-.04s-.03-.04-.03-.04l-10.82-28.06c.96-1.5,1.51-3.28,1.51-5.19v-2.29c0-5.35-4.35-9.7-9.7-9.7h0Z" fill="#231f20" stroke="#231f20" stroke-miterlimit="10"/><path d="M134.96,1.45H20.04c-5.35,0-9.7,4.35-9.7,9.7v2.29c0,2.27,.79,4.37,2.1,6.02L1.12,46.76c-.4,.96-.61,2-.61,3.07V242.82l.2,.67,.1,.57,.36,.83c.37,.86,.9,1.65,1.56,2.35l.49,.52,.42,.3c.33,.25,.67,.48,1.03,.68l17.94,9.84c1.18,.65,2.51,.98,3.85,.98h102.1c1.34,0,2.67-.34,3.84-.98l17.95-9.84c.42-.23,.81-.49,1.18-.8,.28-.22,.53-.46,.78-.72,.64-.67,1.17-1.47,1.55-2.34l.35-.81,.1-.57,.2-.67v-1.11s0-192.15,0-192.15c0-.96-.17-1.9-.51-2.8v-.04s-.03-.04-.03-.04l-10.82-28.06c.96-1.5,1.51-3.28,1.51-5.19v-2.29c0-5.35-4.35-9.7-9.7-9.7h0Z" fill="#f9f4da" stroke="#231f20" stroke-linejoin="round"/><g><polygon points="146.49 241.72 8.51 241.72 8.51 49.83 22.91 15.13 133.22 15.13 146.49 49.57 146.49 241.72" fill="#0ba65b" stroke="#231f20" stroke-linecap="round" stroke-linejoin="round"/><g><path d="M115.45,139.34c0-5.12-6.3-9.54-16.07-12.16,.46-1.71,.84-3.38,1.09-4.98,1.23-7.62-.04-12.94-3.58-14.98-3.54-2.04-8.78-.48-14.76,4.39-1.26,1.03-2.53,2.2-3.79,3.46-1.26-1.26-2.52-2.43-3.79-3.46-5.98-4.87-11.22-6.44-14.76-4.39-3.54,2.04-4.81,7.36-3.58,14.98,.26,1.6,.64,3.27,1.09,4.98-9.76,2.62-16.06,7.04-16.06,12.16,0,5.12,6.3,9.54,16.06,12.16-.46,1.71-.84,3.38-1.09,4.98-1.23,7.62,.04,12.94,3.58,14.98,1.01,.59,2.17,.87,3.44,.87,3.16,0,7.06-1.79,11.32-5.27,1.26-1.03,2.53-2.2,3.79-3.46,1.26,1.26,2.52,2.43,3.79,3.46,4.27,3.48,8.16,5.27,11.32,5.27,1.27,0,2.43-.29,3.44-.87,3.54-2.04,4.81-7.36,3.58-14.98-.26-1.6-.64-3.27-1.09-4.98,9.76-2.62,16.07-7.04,16.07-12.16Zm-32.16-26.32c3.9-3.18,7.45-4.85,10.17-4.85,.95,0,1.8,.21,2.53,.63,2.79,1.61,3.77,6.39,2.69,13.11-.25,1.55-.62,3.18-1.07,4.84-3.35-.79-7.04-1.38-11-1.73-2.24-3.2-4.59-6.11-6.99-8.65,1.22-1.22,2.45-2.36,3.67-3.35Zm7.78,33.66c1-1.73,1.92-3.47,2.78-5.21,1.32,2.96,2.41,5.87,3.25,8.68-2.82,.66-5.89,1.18-9.14,1.53,1.07-1.61,2.11-3.27,3.11-5Zm-1.58-.91c-1.23,2.13-2.53,4.18-3.87,6.14-2.35,.19-4.78,.29-7.27,.29-2.48,0-4.91-.1-7.27-.29-1.34-1.95-2.63-4-3.87-6.14-1.23-2.14-2.36-4.29-3.38-6.43,1.02-2.14,2.15-4.29,3.38-6.43,1.23-2.13,2.53-4.18,3.87-6.13,2.35-.19,4.78-.29,7.27-.29,2.48,0,4.91,.1,7.27,.29,1.34,1.95,2.63,4,3.87,6.13,1.23,2.14,2.36,4.29,3.38,6.43-1.02,2.14-2.15,4.29-3.38,6.43Zm-11.13,15.23c-2.01-2.14-3.99-4.54-5.9-7.17,1.92,.12,3.88,.2,5.9,.2s3.98-.08,5.9-.2c-1.91,2.63-3.89,5.03-5.9,7.17Zm-9.6-9.31c-3.26-.35-6.33-.87-9.14-1.53,.84-2.8,1.93-5.71,3.25-8.68,.87,1.74,1.78,3.48,2.78,5.21,1,1.73,2.04,3.39,3.11,5Zm-5.89-14.47c-1.32-2.96-2.41-5.87-3.25-8.67,2.82-.66,5.89-1.18,9.14-1.53-1.07,1.61-2.11,3.27-3.11,5-1,1.73-1.92,3.47-2.78,5.21Zm15.49-19.52c2.01,2.14,3.99,4.54,5.9,7.17-1.92-.12-3.88-.2-5.9-.2s-3.98,.08-5.9,.2c1.91-2.63,3.89-5.03,5.9-7.17Zm12.71,14.31c-1-1.73-2.04-3.38-3.11-5,3.26,.35,6.32,.87,9.14,1.53-.84,2.8-1.93,5.71-3.25,8.67-.86-1.74-1.78-3.48-2.78-5.21Zm-33.04-10.09c-1.08-6.72-.11-11.5,2.69-13.11,.73-.42,1.58-.63,2.53-.63,2.71,0,6.26,1.67,10.17,4.85,1.22,.99,2.45,2.13,3.67,3.35-2.39,2.54-4.75,5.45-6.99,8.65-3.96,.34-7.65,.94-11,1.73-.45-1.67-.81-3.29-1.07-4.84Zm-14.95,17.43c0-4.2,5.9-8,14.75-10.36,1,3.34,2.35,6.83,3.99,10.36-1.65,3.54-2.99,7.02-3.99,10.36-8.86-2.36-14.75-6.16-14.75-10.36Zm30.33,26.32c-5.27,4.3-9.91,5.84-12.7,4.23-2.79-1.61-3.77-6.39-2.69-13.11,.25-1.55,.62-3.18,1.06-4.84,3.35,.79,7.04,1.38,11,1.73,2.24,3.2,4.59,6.11,6.99,8.65-1.22,1.22-2.45,2.36-3.67,3.35Zm25.26-8.88c1.08,6.72,.11,11.5-2.69,13.11-2.79,1.61-7.42,.07-12.7-4.23-1.22-.99-2.45-2.13-3.67-3.35,2.39-2.54,4.75-5.45,6.99-8.65,3.96-.34,7.65-.94,11-1.73,.45,1.66,.81,3.29,1.06,4.84Zm.19-7.07c-1-3.34-2.35-6.83-3.99-10.36,1.65-3.54,2.99-7.02,3.99-10.36,8.86,2.36,14.75,6.16,14.75,10.36s-5.9,8-14.75,10.36Z" fill="#f9f4da"/><path d="M78.35,134.22c-2.82,0-5.12,2.29-5.12,5.12s2.29,5.12,5.12,5.12,5.12-2.29,5.12-5.12-2.29-5.12-5.12-5.12Z" fill="#f9f4da"/></g><polygon points="8.51 241.72 26.45 251.55 128.55 251.55 146.49 241.72 8.51 241.72" fill="#f9f4da" stroke="#231f20" stroke-linejoin="round"/><rect x="18.35" y="9.45" width="118.3" height="5.69" rx="1.7" ry="1.7" fill="#f9f4da" stroke="#231f20" stroke-linejoin="round"/><g><path d="M20.82,73.71l10.6-1.87c7.62-1.34,11.3,1.31,11.3,8.24v1.78c0,6.08-2.26,8.38-4.38,9.56,2.07,.49,5.11,1.62,5.11,7.87v3.57c0,7.83-3.27,12.27-11.46,13.72l-11.17,1.97v-44.83Zm9.73,15.93c2.91-.51,3.91-1.62,3.91-5.05v-2.32c0-2.87-.92-4.01-3.66-3.53l-1.62,.29v10.85l1.36-.24Zm-1.36,20.7l1.73-.3c3.08-.54,3.81-2.1,3.81-5.42v-4.11c0-3.48-.82-4.82-4.36-4.19l-1.17,.21v13.82Z" fill="#231f20" stroke="#231f20" stroke-linecap="round" stroke-linejoin="round"/><path d="M56.3,92.79v19.49l-8.61,1.52v-44.83l11.19-1.97c7.51-1.33,11.23,1.32,11.23,9.16v1.61c0,6.39-2.55,8.74-4.47,9.99,2.79,.86,4.1,2.67,4.1,8.93,0,4.33-.07,10.89,.31,13.18l-8.34,1.47c-.56-1.93-.52-7.77-.52-13.5,0-5.04-.58-5.8-3.86-5.22l-1.02,.18Zm.02-6.8l1.07-.19c2.88-.51,4.05-1.62,4.05-5.8v-2.17c0-3.01-.6-4.4-3.78-3.84l-1.35,.24v11.75Z" fill="#231f20" stroke="#231f20" stroke-linecap="round" stroke-linejoin="round"/><path d="M82.11,97.06l-1.1,10.87-8.79,1.55,6.34-45.95,12.86-2.27,6.49,43.69-8.97,1.58-1.23-10.45-5.59,.98Zm4.85-8.46c-.64-5.62-1.53-14.19-1.95-18.41l-.34,.06c-.16,3.15-1.22,13.43-1.81,19.08l4.1-.72Z" fill="#231f20" stroke="#231f20" stroke-linecap="round" stroke-linejoin="round"/><path d="M109.74,58.03v44.83l-8.61,1.52V59.54l8.61-1.52Z" fill="#231f20" stroke="#231f20" stroke-linecap="round" stroke-linejoin="round"/><path d="M115.15,101.9V57.07l9.54-1.68c1.42,5.22,5.92,24.73,6.27,26.64l.21-.04c-.48-5.88-.79-13.98-.79-20.24v-7.37l8.01-1.41v44.83l-9.63,1.7c-.93-4.1-5.83-26.44-6.12-27.82l-.23,.04c.34,5.22,.6,14.09,.6,21.13v7.66l-7.86,1.39Z" fill="#231f20" stroke="#231f20" stroke-linecap="round" stroke-linejoin="round"/></g><g><path d="M18.28,71.87l10.6-1.87c7.62-1.34,11.3,1.31,11.3,8.24v1.78c0,6.08-2.26,8.38-4.38,9.56,2.07,.49,5.11,1.62,5.11,7.87v3.57c0,7.83-3.27,12.27-11.46,13.72l-11.17,1.97v-44.83Zm9.73,15.93c2.91-.51,3.91-1.62,3.91-5.05v-2.32c0-2.87-.92-4.01-3.66-3.53l-1.62,.29v10.85l1.36-.24Zm-1.36,20.7l1.73-.3c3.08-.54,3.81-2.1,3.81-5.42v-4.11c0-3.48-.82-4.82-4.36-4.19l-1.17,.21v13.82Z" fill="#f9b728" stroke="#231f20" stroke-linecap="round" stroke-linejoin="round"/><path d="M53.77,90.96v19.49l-8.61,1.52v-44.83l11.19-1.97c7.51-1.33,11.23,1.32,11.23,9.16v1.61c0,6.39-2.55,8.74-4.47,9.99,2.79,.86,4.1,2.67,4.1,8.93,0,4.33-.07,10.89,.31,13.18l-8.34,1.47c-.56-1.93-.52-7.77-.52-13.5,0-5.04-.58-5.8-3.86-5.22l-1.02,.18Zm.02-6.8l1.07-.19c2.88-.51,4.05-1.62,4.05-5.8v-2.17c0-3.01-.6-4.4-3.78-3.84l-1.35,.24v11.75Z" fill="#f9b728" stroke="#231f20" stroke-linecap="round" stroke-linejoin="round"/><path d="M79.57,95.23l-1.1,10.87-8.79,1.55,6.34-45.95,12.86-2.27,6.49,43.69-8.97,1.58-1.23-10.45-5.59,.98Zm4.85-8.46c-.64-5.62-1.53-14.19-1.95-18.41l-.34,.06c-.16,3.15-1.22,13.43-1.81,19.08l4.1-.72Z" fill="#f9b728" stroke="#231f20" stroke-linecap="round" stroke-linejoin="round"/><path d="M107.2,56.19v44.83l-8.61,1.52V57.71l8.61-1.52Z" fill="#f9b728" stroke="#231f20" stroke-linecap="round" stroke-linejoin="round"/><path d="M112.61,100.07V55.24l9.54-1.68c1.42,5.22,5.92,24.73,6.27,26.64l.21-.04c-.48-5.88-.79-13.98-.79-20.24v-7.37l8.01-1.41v44.83l-9.63,1.7c-.93-4.1-5.83-26.44-6.12-27.82l-.23,.04c.34,5.22,.6,14.09,.6,21.13v7.66l-7.86,1.39Z" fill="#f9b728" stroke="#231f20" stroke-linecap="round" stroke-linejoin="round"/></g><g><path d="M45.57,215.22c0,6.77-.85,11.85-9.58,13.39-1.29,.23-2.91,.38-3.88,.4v-7.16c.46-.04,1.19-.1,1.94-.23,2.25-.4,2.89-1.26,2.89-3.92v-34.66l8.63-1.52v33.72Z" fill="#231f20" stroke="#231f20" stroke-linecap="round" stroke-linejoin="round"/><path d="M59.02,179.13v34.14c0,2.62,.8,3.87,2.76,3.52,2.08-.37,2.72-2.07,2.72-4.49v-34.14l8.73-1.54v33.58c0,7.95-3.65,12.52-11.58,13.92-7.79,1.37-11.31-1.8-11.31-9.95v-33.51l8.68-1.53Z" fill="#231f20" stroke="#231f20" stroke-linecap="round" stroke-linejoin="round"/><path d="M87.01,174.2v44.83l-8.61,1.52v-44.83l8.61-1.52Z" fill="#231f20" stroke="#231f20" stroke-linecap="round" stroke-linejoin="round"/><path d="M113.92,199.65v2.43c0,5.66-1.04,13.06-11.32,14.87-7.59,1.34-10.89-2.12-10.89-10.37v-21.98c0-7.8,3.89-12.59,11.07-13.86,9.47-1.67,11.01,4.29,11.01,10.16v2.81l-8.68,1.53v-3.83c0-2.47-.53-3.62-2.33-3.31-1.78,.31-2.35,1.59-2.35,4.13v23.71c0,2.39,.4,3.96,2.35,3.61,1.86-.33,2.42-1.8,2.42-4.65v-3.73l8.72-1.54Z" fill="#231f20" stroke="#231f20" stroke-linecap="round" stroke-linejoin="round"/><path d="M135.44,190.69l-9.24,1.63v12.22l10.84-1.91-1.03,7.76-18.43,3.25v-44.83l18.37-3.24v7.62l-9.73,1.72v9.83l9.24-1.63v7.58Z" fill="#231f20" stroke="#231f20" stroke-linecap="round" stroke-linejoin="round"/></g><g><path d="M43.04,213.42c0,6.77-.85,11.85-9.58,13.39-1.29,.23-2.91,.38-3.88,.4v-7.16c.46-.04,1.19-.1,1.94-.23,2.25-.4,2.89-1.26,2.89-3.92v-34.66l8.63-1.52v33.72Z" fill="#f9b728" stroke="#231f20" stroke-linecap="round" stroke-linejoin="round"/><path d="M56.48,177.33v34.14c0,2.62,.8,3.87,2.76,3.52,2.08-.37,2.72-2.07,2.72-4.49v-34.14l8.73-1.54v33.58c0,7.95-3.65,12.52-11.58,13.92-7.79,1.37-11.31-1.8-11.31-9.95v-33.51l8.68-1.53Z" fill="#f9b728" stroke="#231f20" stroke-linecap="round" stroke-linejoin="round"/><path d="M84.47,172.39v44.83l-8.61,1.52v-44.83l8.61-1.52Z" fill="#f9b728" stroke="#231f20" stroke-linecap="round" stroke-linejoin="round"/><path d="M111.38,197.85v2.43c0,5.66-1.04,13.06-11.32,14.87-7.59,1.34-10.89-2.12-10.89-10.37v-21.98c0-7.8,3.89-12.59,11.07-13.86,9.47-1.67,11.01,4.29,11.01,10.16v2.81l-8.68,1.53v-3.83c0-2.47-.53-3.62-2.33-3.31-1.78,.31-2.35,1.59-2.35,4.13v23.71c0,2.39,.4,3.96,2.35,3.61,1.86-.33,2.42-1.8,2.42-4.65v-3.73l8.72-1.54Z" fill="#f9b728" stroke="#231f20" stroke-linecap="round" stroke-linejoin="round"/><path d="M132.91,188.88l-9.24,1.63v12.22l10.84-1.91-1.03,7.76-18.43,3.25v-44.83l18.37-3.24v7.62l-9.73,1.72v9.83l9.24-1.63v7.58Z" fill="#f9b728" stroke="#231f20" stroke-linecap="round" stroke-linejoin="round"/></g><polyline points="31.36 21.71 18.35 50.78 18.35 232.42" fill="none" stroke="#f9f4da" stroke-linecap="round" stroke-linejoin="round" stroke-width="3"/></g></svg>