<?xml version="1.0" encoding="UTF-8"?><svg id="c" xmlns="http://www.w3.org/2000/svg" viewBox="0 0 186 288"><path d="M181.55,255.54V93.81c2.23-2.11,3.6-5.09,3.6-8.36,0-5.38-3.7-9.91-8.69-11.18-5.03-14.97-16.63-27.28-32.52-34.29-1.03-.45-2.11-.68-3.23-.68h-7.97v-13.49c0-4.41-3.59-8-8-8h-16.63c-3.78,0-6.96,2.64-7.78,6.18L15.46,6.6c-.51-.11-1.06-.16-1.6-.16-1.81,0-3.59,.62-5,1.76l-.04,.03-.04,.03c-1.85,1.53-2.92,3.78-2.92,6.18V54.33c0,2.4,1.06,4.65,2.92,6.18,1.44,1.18,3.24,1.82,5.08,1.82,.48,0,.96-.04,1.44-.13h.05s.05-.02,.05-.02l56.15-10.92c-6.99,6.41-12.2,14.25-15.14,23.01-4.99,1.27-8.69,5.8-8.69,11.18,0,3.28,1.37,6.26,3.6,8.36v172.86c-2.23,2.11-3.6,5.09-3.6,8.36,0,6.36,5.17,11.54,11.54,11.54h114.38c6.36,0,11.54-5.18,11.54-11.54,0-3.28-1.37-6.26-3.6-8.36v-11.13Z" fill="#231f20" stroke="#231f20" stroke-linejoin="round"/><path d="M176.55,250.54V88.81c2.23-2.11,3.6-5.09,3.6-8.36,0-5.38-3.7-9.91-8.69-11.18-5.03-14.97-16.63-27.28-32.52-34.29-1.03-.45-2.11-.68-3.23-.68h-7.97v-13.49c0-4.41-3.59-8-8-8h-16.63c-3.78,0-6.96,2.64-7.78,6.18L10.46,1.6c-.51-.11-1.06-.16-1.6-.16-1.81,0-3.59,.62-5,1.76l-.04,.03-.04,.03C1.91,4.78,.85,7.03,.85,9.43V49.33c0,2.4,1.06,4.65,2.92,6.18,1.44,1.18,3.24,1.82,5.08,1.82,.48,0,.96-.04,1.44-.13h.05s.05-.02,.05-.02l56.15-10.92c-6.99,6.41-12.2,14.25-15.14,23.01-4.99,1.27-8.69,5.8-8.69,11.18,0,3.28,1.37,6.26,3.6,8.36v172.86c-2.23,2.11-3.6,5.09-3.6,8.36,0,6.36,5.17,11.54,11.54,11.54h114.38c6.36,0,11.54-5.18,11.54-11.54,0-3.28-1.37-6.26-3.6-8.36v-11.13Z" fill="#f9f4da" stroke="#231f20" stroke-linejoin="round"/><g><polygon points="97.75 27.65 8.85 9.43 8.85 49.33 97.75 32.04 97.75 27.65" fill="#f088a0" stroke="#231f20" stroke-linecap="round" stroke-linejoin="round"/><polygon points="97.75 28.36 8.85 21.28 8.85 49.33 97.75 32.04 97.75 28.36" fill="#0ba65b" stroke="#231f20" stroke-linecap="round" stroke-linejoin="round"/><polygon points="97.75 30.83 8.85 31.42 8.85 49.33 97.75 32.04 97.75 30.83" fill="#12b2e2" stroke="#231f20" stroke-linecap="round" stroke-linejoin="round"/><polygon points="97.75 32.04 8.85 40.08 8.85 49.33 97.75 32.04 97.75 32.04" fill="#7b5ea7" stroke="#231f20" stroke-linecap="round" stroke-linejoin="round"/><g><path d="M103.11,20.81v4.31c2.74,0,4.97,2.22,4.97,4.97s-2.22,4.97-4.97,4.97v9.23h16.63V20.81h-16.63Z" fill="#f9b728" stroke="#231f20" stroke-linecap="round" stroke-linejoin="round"/><path d="M135.71,42.3h-48.58c-18.07,7.97-30.5,24.53-30.5,43.69,0,26.92,24.53,48.74,54.79,48.74s54.79-21.82,54.79-48.74c0-19.16-12.43-35.72-30.5-43.69Z" fill="#f9b728" stroke="#231f20" stroke-linecap="round" stroke-linejoin="round"/><rect x="54.3" y="80.03" width="114.25" height="190" fill="#7b5ea7" stroke="#231f20" stroke-linecap="round" stroke-linejoin="round"/><polygon points="168.55 86.8 168.55 80.03 54.3 80.03 54.3 107.31 168.55 86.8" fill="#12b2e2" stroke="#231f20" stroke-linecap="round" stroke-linejoin="round"/><polygon points="54.3 264 54.3 270.03 168.55 270.03 168.55 243.66 54.3 264" fill="#f088a0" stroke="#231f20" stroke-linecap="round" stroke-linejoin="round"/><rect x="50.7" y="266.5" width="121.45" height="7.07" rx="3.54" ry="3.54" fill="#f9f4da" stroke="#231f20" stroke-linejoin="round"/><rect x="50.7" y="76.91" width="121.45" height="7.07" rx="3.54" ry="3.54" fill="#f9f4da" stroke="#231f20" stroke-linejoin="round"/><g><polyline points="94.72 215.58 79.86 220.93 79.86 239.18" fill="none" stroke="#f9f4da" stroke-linecap="round" stroke-linejoin="round"/><polyline points="91.98 202.8 72.27 202.8 72.27 225.93" fill="none" stroke="#f9f4da" stroke-linecap="round" stroke-linejoin="round"/><polyline points="91.98 192.37 79.86 186.86 79.86 168.8" fill="none" stroke="#f9f4da" stroke-linecap="round" stroke-linejoin="round"/><polyline points="130.58 215.58 145.44 220.93 145.44 239.18" fill="none" stroke="#f9f4da" stroke-linecap="round" stroke-linejoin="round"/><polyline points="133.32 202.8 153.03 202.8 153.03 225.93" fill="none" stroke="#f9f4da" stroke-linecap="round" stroke-linejoin="round"/><polyline points="133.32 192.37 145.44 186.86 145.44 168.8" fill="none" stroke="#f9f4da" stroke-linecap="round" stroke-linejoin="round"/><path d="M92.2,186.86v18.5c0,11.31,9.25,20.56,20.56,20.56s20.56-9.25,20.56-20.56v-18.5h-41.13Z" fill="#f9f4da" stroke="#231f20" stroke-linejoin="round"/><path d="M92.2,186.86s5.96,13.66,20.56,13.66,20.56-13.66,20.56-13.66" fill="none" stroke="#231f20" stroke-linejoin="round"/><line x1="112.76" y1="225.93" x2="112.76" y2="200.52" fill="#f9f4da" stroke="#231f20" stroke-linejoin="round"/><path d="M123.46,186.86v-1.3c0-5.95-4.87-10.82-10.82-10.82s-10.82,4.87-10.82,10.82v1.3h21.63Z" fill="#f9f4da" stroke="#231f20" stroke-linejoin="round"/><line x1="108.62" y1="178.54" x2="110.96" y2="180.88" fill="#f088a0" stroke="#231f20" stroke-linecap="round" stroke-linejoin="round"/><line x1="110.96" y1="178.54" x2="108.62" y2="180.88" fill="#f088a0" stroke="#231f20" stroke-linecap="round" stroke-linejoin="round"/><line x1="114.46" y1="178.54" x2="116.81" y2="180.88" fill="#f088a0" stroke="#231f20" stroke-linecap="round" stroke-linejoin="round"/><line x1="116.81" y1="178.54" x2="114.46" y2="180.88" fill="#f088a0" stroke="#231f20" stroke-linecap="round" stroke-linejoin="round"/></g><g><g><path d="M110.03,139.12l5.03-.89c3.61-.64,5.36,.62,5.36,3.91v.84c0,2.88-1.07,3.97-2.08,4.54,.98,.23,2.42,.77,2.42,3.73v1.69c0,3.71-1.55,5.82-5.43,6.5l-5.3,.93v-21.26Zm4.61,7.55c1.38-.24,1.85-.77,1.85-2.4v-1.1c0-1.36-.44-1.9-1.73-1.67l-.77,.13v5.15l.65-.11Zm-.65,9.82l.82-.14c1.46-.26,1.8-.99,1.8-2.57v-1.95c0-1.65-.39-2.28-2.07-1.99l-.56,.1v6.55Z" fill="#f0f4da"/><path d="M126.78,136.16v16.19c0,1.24,.38,1.84,1.31,1.67,.99-.17,1.29-.98,1.29-2.13v-16.19l4.14-.73v15.93c0,3.77-1.73,5.94-5.49,6.6-3.69,.65-5.36-.86-5.36-4.72v-15.89l4.12-.73Z" fill="#f0f4da"/><path d="M146.48,153.95l-3.07,.54c-.1-.35-.16-1.1-.19-1.54-.67,1.61-2.04,2.25-3.35,2.48-3.31,.58-4.24-1.71-4.24-5.19v-10c0-3.26,1.35-6.2,5.41-6.91,4.89-.86,5.39,2.61,5.39,4.76v.96l-4.12,.73v-1.17c0-1.03-.12-1.96-1.26-1.76-.94,.17-1.28,.91-1.28,2.3v10.9c0,1.45,.47,1.89,1.28,1.75,1-.17,1.33-1.01,1.33-2.76v-3.05l-1.41,.25v-3.45l5.51-.97v12.15Z" fill="#f0f4da"/><path d="M152.14,146.4v1.47c0,1.4,.35,1.99,1.28,1.82,.94-.17,1.16-1.17,1.16-2.17,0-2.01-.38-2.52-2.55-3.95-2.39-1.61-3.63-2.59-3.63-5.72s1.01-6.01,5.03-6.72c4.28-.75,4.91,2.05,4.91,4.48v1.22l-3.86,.68v-1.27c0-1.29-.21-1.89-1.02-1.75-.75,.13-1,.83-1,2.03,0,1.28,.23,1.87,1.99,2.93,3.13,1.91,4.25,3.09,4.25,6.59s-1.14,6.27-5.36,7.02c-4.06,.72-5.21-1.53-5.21-4.68v-1.27l4-.71Z" fill="#f0f4da"/></g><g><path d="M65.2,141.93v-21.26l4.52-.8c.67,2.48,2.81,11.73,2.97,12.63l.1-.02c-.23-2.79-.37-6.63-.37-9.6v-3.49l3.8-.67v21.26l-4.56,.8c-.44-1.94-2.77-12.54-2.9-13.19l-.11,.02c.16,2.47,.28,6.68,.28,10.02v3.63l-3.73,.66Z" fill="#f0f4da"/><path d="M89.47,122.08v9.86c0,4.22-1.99,6.38-5.7,7.03-3.53,.62-5.34-.91-5.34-5.04v-10.01c0-4.1,2.26-6.29,5.53-6.87,3.29-.58,5.51,.79,5.51,5.04Zm-6.91,.76v10.87c0,1.31,.45,1.92,1.37,1.76,.95-.17,1.38-.87,1.38-2.26v-10.88c0-1.33-.37-1.94-1.4-1.76-.87,.15-1.35,.87-1.35,2.28Z" fill="#f0f4da"/><path d="M106.72,127.84c0-3.29,.03-7.96,.08-10.58l-.11,.02c-.44,4.33-1.38,13.11-1.96,17.68l-3.47,.61c-.47-4.57-1.39-13.17-1.83-17.07l-.13,.02c.05,2.49,.16,7.08,.16,10.74v6.62l-3.71,.65v-21.26l5.87-1.04c.55,3.95,1.18,9.14,1.42,11.98l.09-.02c.33-3.14,1.03-7.73,1.69-12.53l5.84-1.03v21.26l-3.94,.69v-6.77Z" fill="#f0f4da"/><path d="M123.88,116.01v9.86c0,4.22-1.99,6.38-5.7,7.03-3.53,.62-5.34-.91-5.34-5.04v-10.01c0-4.1,2.26-6.29,5.53-6.87,3.29-.58,5.51,.79,5.51,5.04Zm-6.91,.76v10.87c0,1.31,.45,1.92,1.36,1.76,.95-.17,1.38-.87,1.38-2.26v-10.88c0-1.33-.37-1.94-1.4-1.76-.87,.15-1.35,.87-1.35,2.28Z" fill="#f0f4da"/><path d="M130.15,121.24v9.24l-4.08,.72v-21.26l5.3-.93c3.56-.63,5.32,.63,5.32,4.34v.76c0,3.03-1.21,4.14-2.12,4.74,1.32,.41,1.94,1.27,1.94,4.23,0,2.05-.03,5.16,.15,6.25l-3.96,.7c-.26-.91-.25-3.68-.25-6.4,0-2.39-.27-2.75-1.83-2.48l-.48,.08Zm.01-3.22l.51-.09c1.37-.24,1.92-.77,1.92-2.75v-1.03c0-1.43-.29-2.09-1.79-1.82l-.64,.11v5.57Z" fill="#f0f4da"/><path d="M147.17,118.09l-4.38,.77v5.8l5.14-.91-.49,3.68-8.74,1.54v-21.26l8.71-1.54v3.62l-4.62,.81v4.66l4.38-.77v3.59Z" fill="#f0f4da"/></g></g></g></g></svg>